# xmcd
#
# Track frame offsets:
#	150
#	19502
#	48090
#	65125
#	83875
#	109150
#	141462
#	162747
#	183842
#	218560
#	244585
#
# Disc length: 3498 seconds
#
# Revision: 4
# Processed by: cddbd v1.5.2PL0 Copyright (c) Steve Scherf et al.
# Submitted via: audiograbber 1.83.01
#
DISCID=960da80b
DTITLE=Various Artist - Fresh Blues - The Inak Blues Connection Vol. 4
DYEAR=2002
DGENRE=Blues
TTITLE0=Scott Holt - Dimples
TTITLE1=Telecats - Nelly
TTITLE2=Cadillac Blues Band - Get Back
TTITLE3=Joanna Connor - Dust My Broom
TTITLE4=Blues Company - 747
TTITLE5=Leslie West - Stormy Monday
TTITLE6=Vince Converse - She Thing
TTITLE7=Toscho - Love Her With A Feelin'
TTITLE8=Savoy Brown - Little Red Rooster
TTITLE9=Guitar Crusher - You Know How To Hurt A Man
TTITLE10=Electric Blues Duo - Goin Down
EXTD=
EXTT0=
EXTT1=
EXTT2=
EXTT3=
EXTT4=
EXTT5=
EXTT6=
EXTT7=
EXTT8=
EXTT9=
EXTT10=
PLAYORDER=
